PathFileType	4	(X/Y/Z)	path1_04_0-899.trc
DataRate	CameraRate	NumFrames	NumMarkers	Units	OrigDataRate	OrigDataStartFrame	OrigNumFrames
30	30	7	22	m	30	112	899
Frame#	Time	Hip			RHip			RKnee			RAnkle			RBigToe			RSmallToe			RHeel			LHip			LKnee			LAnkle			LBigToe			LSmallToe			LHeel			Neck			Head			Nose			RShoulder			RElbow			RWrist			LShoulder			LElbow			LWrist		
		X1	Y1	Z1	X2	Y2	Z2	X3	Y3	Z3	X4	Y4	Z4	X5	Y5	Z5	X6	Y6	Z6	X7	Y7	Z7	X8	Y8	Z8	X9	Y9	Z9	X10	Y10	Z10	X11	Y11	Z11	X12	Y12	Z12	X13	Y13	Z13	X14	Y14	Z14	X15	Y15	Z15	X16	Y16	Z16	X17	Y17	Z17	X18	Y18	Z18	X19	Y19	Z19	X20	Y20	Z20	X21	Y21	Z21	X22	Y22	Z22
113	3.7666666666666666	-1.6662335911497494	0.8170321628074638	0.28196784522980867	-1.6681876416760002	0.7922023300043304	0.3636156073693698	-1.692331126415424	0.4619688598041851	0.3334705449248087	-1.720779690125532	0.10225261247542013	0.3699787712529087	-1.5645349511370514	0.03227039089736402	0.36916934446116384	-1.592949757595526	0.03631462754325574	0.4300819513351496	-1.7581949894150797	0.052963775908749296	0.35534256681705434	-1.6646562987641338	0.7837694627351024	0.21026895710371252	-1.6884136128510603	0.4527924630992519	0.23418082514311422	-1.719672477740625	0.09381983238075794	0.1899148851896661	-1.5581749699356688	0.013792375579545584	0.14998251611404412	-1.5778894981711704	0.01833371890455899	0.1087070582754619	-1.778441288411989	0.0308094633171062	0.18241352803864122	-1.665138250768832	1.4492916700865446	0.24285770684772492	-1.6049307772805073	1.707239704854786	0.2734858293518059	-1.5304532746686197	1.5827425302943863	0.2815171664370203	-1.7100461658682762	1.3509821631282004	0.3931085326077299	-1.6979098718832346	1.051803061317741	0.423621327326766	-1.607299297322827	0.8511033404727664	0.475555300665746	-1.7110538285603984	1.3472242516553519	0.05753851324541889	-1.700421828519066	1.0348682757394376	0.13721856831985105	-1.5878843849631827	0.8548297998566993	0.08762760262946401
114	3.8	-1.6668015724077356	0.8168884346368582	0.28192358126201017	-1.668755856675631	0.7923200393601186	0.3638958222963367	-1.6925289458009638	0.4622816524571378	0.33378306054205636	-1.7208150723442293	0.10162327258006625	0.37121088696844373	-1.5648612880278716	0.03259257258744658	0.36961027924105755	-1.5931731623265915	0.036285559798422226	0.43016699048452717	-1.7584155354138211	0.0533578765849778	0.3559020265183483	-1.6645004458818482	0.7841872570716908	0.21036932206110012	-1.6879769984930322	0.45300517305678095	0.23393537999210257	-1.7165361060959285	0.09530040161953836	0.19239862266964447	-1.5576346322886296	0.013857919093221085	0.1500465818886856	-1.574179418553605	0.019608620840008556	0.1116251454269879	-1.7783959295766767	0.031174370086094257	0.1818393941600492	-1.6653169657864617	1.4492052270910771	0.24266050304927533	-1.604965855844096	1.7079116052592487	0.27260195970717815	-1.530758599213978	1.5829143466912676	0.28146420891288754	-1.7101711607942673	1.3511281303228515	0.39386349351923394	-1.698289510727068	1.052019455209457	0.42411326168322233	-1.6102017665327852	0.8499852949128909	0.470542807531395	-1.7109235850007705	1.3471397522332957	0.057210054355555685	-1.7004735748998163	1.0344762159314624	0.13716356329140095	-1.5879379456909621	0.8545513077081639	0.08752160386630708
115	3.8333333333333335	-1.6672817419144963	0.8167651740398552	0.28193557112065026	-1.6691966997486742	0.7923600343118348	0.36392800499749345	-1.6926398591434237	0.46256531268524315	0.33406652930533953	-1.7207062798358026	0.10236706405738137	0.3705196404234326	-1.5651443356519144	0.03269856045692878	0.3698892803657006	-1.5932651924432075	0.03613888927037113	0.4302942988789272	-1.7583740440966225	0.0537570790805078	0.35621995300924036	-1.6642640973261633	0.7845483657049701	0.21041588378072526	-1.6876817823341572	0.45319894876502487	0.23388515645801763	-1.7132890917764676	0.09657680467055042	0.19491888022705364	-1.5571392717625643	0.013517781828106479	0.1500702087156127	-1.5705523837995847	0.02084290205188191	0.11439785567408865	-1.7782963104861242	0.03134815510028718	0.18124060671893583	-1.665618125295169	1.4491188051420767	0.2425827943064588	-1.6051228281652161	1.7084275668393918	0.271571265446807	-1.5310498562087174	1.5830777367663913	0.2809708281047653	-1.7103788984565746	1.3512187344653497	0.39435336990269154	-1.6987110012523363	1.0523267419150297	0.4243777264561601	-1.612270673816628	0.8491764004690835	0.46717885581270197	-1.7109203371588866	1.3467882263429602	0.05881491988319134	-1.7004958024589254	1.0342926419549883	0.13706070344419577	-1.588071024143417	0.8543556609428703	0.08746921844176946
116	3.8666666666666663	-1.6674773087852017	0.8167398170405249	0.2819775239278082	-1.6693380471799117	0.7922046173279531	0.36368767314963935	-1.692664421240656	0.4626361338503329	0.334241706045402	-1.7205036007751486	0.10410151137502455	0.3683394929970365	-1.5653251661099394	0.032530786179345024	0.3699185679394324	-1.5931736967624508	0.03591411277832982	0.4304523744525788	-1.7581511848202596	0.054078946393090604	0.3562140827328754	-1.6640698704363968	0.7846827505787418	0.210378186002938	-1.6876708126243707	0.4533370127418864	0.23407826396887532	-1.7106925148240375	0.09742659067295519	0.196869320691219	-1.5567693162350806	0.012800624010797955	0.15008949148278591	-1.5678413624881613	0.021793227740145648	0.11640774944933066	-1.7781725782244755	0.031257700014163184	0.18075263582309703	-1.6659449010364829	1.4490918753911968	0.2427563168866842	-1.6055347165803715	1.7085535948242827	0.27091949873996257	-1.5312621782198061	1.5832109546296484	0.28025387757755954	-1.7105676688942688	1.351174311327438	0.3945618721842016	-1.6990300764318023	1.052616887433017	0.42443542541500556	-1.6124315268658735	0.8490459899755606	0.46730785056246155	-1.7112091468758335	1.3461012890672028	0.06316468983240621	-1.7005151888151229	1.0343658997129723	0.13699961670062072	-1.5882544506520822	0.8543620573559447	0.08745553390612659
117	3.9	-1.6672993505125984	0.8168741847171229	0.28204260697798555	-1.6690735070348661	0.7919495181692263	0.3634083633910761	-1.6925446936431978	0.4624822998917743	0.33439721642209963	-1.720307625919191	0.10662671221529227	0.3649036769369556	-1.565359725176876	0.03207361562006913	0.36976500931875556	-1.5929011190813442	0.035614125112158945	0.4305900702302486	-1.7578993602560395	0.05430462261667036	0.3558881113407874	-1.6639831664629032	0.7845894277377237	0.21037594539896587	-1.6879537359413648	0.45340206729161026	0.23455337615517963	-1.7090320300208055	0.09789268375834982	0.19809927940689515	-1.5565108203183955	0.011683255305348838	0.15063261744745407	-1.5663967438990336	0.0222944436572819	0.1173604319488203	-1.7780309120922013	0.03097217406046593	0.1805308413553606	-1.6661966324688868	1.449132461745396	0.24320124213544295	-1.6061239873011826	1.7082852121780983	0.27105888394959643	-1.5313381856277188	1.5832960138338923	0.2795271580868054	-1.7106507804372708	1.350984163598816	0.39457696724631475	-1.6991399429787042	1.052830567913236	0.4243732492153474	-1.6108269459521039	0.849553712714733	0.4704659902753749	-1.7118617896982424	1.3449087717635935	0.07107646917257446	-1.7005692638050214	1.0346431543350934	0.13704898622764505	-1.5884814554750433	0.8545939750086313	0.08750360135831509
118	3.933333333333333	-1.6668281877107483	0.817167257550242	0.2821210687041478	-1.6683921652804676	0.7918444701461397	0.36339371438319384	-1.6922544389116747	0.46225760115616205	0.3346981377566332	-1.7201796137310201	0.10947299705335052	0.36094668224646365	-1.5651636466452246	0.03145834486804535	0.36960221845369123	-1.5924582568338932	0.035283311089237955	0.43066675926578907	-1.7576840222233996	0.05444673524956239	0.35539414850614337	-1.6640275012026715	0.7844261458954555	0.21061312657673945	-1.6884595768837358	0.45336048466891854	0.23530985164825094	-1.7082745902102552	0.09810841098098998	0.1987520817889008	-1.5563861217727581	0.010283267907983581	0.15197777498271545	-1.5663723721584724	0.022207631503777848	0.11712916320157482	-1.7778773970514203	0.030647252000054057	0.18064734071917674	-1.6663404712602272	1.4491900815917058	0.24376231447349506	-1.60665405510683	1.707824270284522	0.2720085714077404	-1.531290805552401	1.583280559400931	0.2788865780247298	-1.7106381501645749	1.3507278054275433	0.3944875933442916	-1.6990350754857262	1.0529777098482465	0.424273334021922	-1.6088838714151301	0.8502466012577197	0.47394409908293217	-1.7127726282720976	1.3431138468540451	0.08253442456671613	-1.7006873064012962	1.0350064996320856	0.13724214624079542	-1.5887885337674381	0.8549673723167873	0.08763923882075436
119	3.966666666666667	-1.6662707586310812	0.8175689137087343	0.2822031758279167	-1.6673916222962792	0.7921499136314696	0.36382490875382806	-1.6918664210267802	0.4621689894434795	0.33523176210514394	-1.720085075097562	0.1116660977645132	0.3579373633794163	-1.5646819119279642	0.030935191729591704	0.3695241676050825	-1.5918776962180448	0.03501954367498908	0.43063242036383564	-1.7574131788957614	0.054493073644487265	0.35500247838328913	-1.6642107361603462	0.7844122094079964	0.21124176722909596	-1.6890862435625742	0.4532050562965476	0.236270773410571	-1.7083522285906505	0.09813431765776068	0.19896162789736646	-1.556544719100466	0.008979190414782184	0.15340315263047855	-1.5680726867318118	0.021400810451325636	0.11556069862303445	-1.7777240132277936	0.0304482503422576	0.1810383663276509	-1.6664218130453492	1.4491924754161536	0.2441827402762938	-1.6068521483442697	1.7074601376824583	0.2732692628610301	-1.5312082676286223	1.5830937004401935	0.2783899207923235	-1.7106304196433757	1.350522793818619	0.39434841629784173	-1.6988121533257052	1.0531142413075834	0.42418288731149134	-1.6082329359495755	0.8506087148211225	0.4748386598955803	-1.7136523444316683	1.3410073140246828	0.09527937117278557	-1.7008659871768979	1.035345138791571	0.13755955073775805	-1.589212680716362	0.8553847986401333	0.08784140010328939
